PathFileType	4	(X/Y/Z)	C:/Users/beibeiliu/ov580/test_trc/User1\sequence.34_training_dense_right.trc
DataRate	CameraRate	NumFrames	NumMarkers	Units	OrigDataRate	OrigDataStartFrame	OrigNumFrames
120	120	24	19	mm	120	30	234
Frame#	Time	ThumbCMC			ThumbMCP			ThumbIP			ThumbTip			IndexMCP			IndexPIP			IndexTip			MiddleMCP			MiddlePIP			MiddleTip			RingMCP			RingPIP			RingTip			PinkyMCP			PinkyPIP			PinkyTip			BackHand1			BackHand2			BackHand3	
		X0	Y0	Z0	X1	Y1	Z1	X2	Y2	Z2	X3	Y3	Z3	X4	Y4	Z4	X5	Y5	Z5	X6	Y6	Z6	X7	Y7	Z7	X8	Y8	Z8	X9	Y9	Z9	X10	Y10	Z10	X11	Y11	Z11	X12	Y12	Z12	X13	Y13	Z13	X14	Y14	Z14	X15	Y15	Z15	X16	Y16	Z16	X17	Y17	Z17	X18	Y18	Z18	
29	0.241667	154.762	-28.2577	70.2752	123.948	-41.2495	54.1487	100.446	-42.6917	35.1744	84.7986	-52.0929	16.4418	166.142	-17.4859	-15.6624	157.69	-18.8914	-40.1394	138.658	-31.1635	-60.3271	184.674	-36.9156	-26.5719	170.716	-43.4495	-55.4873	143.208	-55.3584	-74.9618	178.768	-67.3783	-20.675	147.164	-81.5228	-30.0904	128.714	-89.6559	-3.89865	182.496	-90.6479	-3.25109	152.132	-99.7044	-2.79075	137.174	-92.9376	22.7712	207.784	-55.5235	31.7469	219.728	-58.3527	66.843	192.655	-25.5061	56.208	
30	0.25	153.868	-26.7812	69.1125	123.508	-39.0558	52.5984	104.398	-43.1787	35.7227	88.0504	-51.4322	19.2785	165.847	-14.402	-11.2855	157.361	-22.3302	-40.4069	137.783	-32.9241	-57.5714	182.969	-38.5472	-24.3471	166.915	-44.8622	-54.415	139.084	-60.1549	-67.9116	175.068	-69.439	-20.4753	143.26	-80.7921	-24.5737	130.379	-89.9599	7.89321	177.32	-90.8348	-0.990172	149.127	-94.3383	3.9165	139.906	-85.0076	30.3683	207.632	-59.0343	34.1902	216.192	-59.7463	66.6368	195.256	-27.4605	56.9655	
31	0.258333	155.576	-27.697	70.6737	123.173	-39.2832	49.9362	105.352	-42.6846	33.4453	86.8309	-52.0799	14.8488	169.735	-19.3576	-9.52484	156.307	-22.2409	-40.4237	134.097	-37.0613	-55.9948	183.693	-40.827	-25.141	166.079	-48.4161	-52.0985	132.132	-61.0474	-63.447	171.552	-70.8101	-18.6291	141.055	-84.1475	-18.3621	129.11	-84.9753	10.3941	175.253	-95.2564	2.26679	147.439	-95.0057	9.35223	144.383	-79.1914	37.2134	206.168	-59.7914	34.834	216.918	-59.5501	70.5029	197.352	-32.042	56.4136	
32	0.266667	154.926	-26.8009	73.9147	122.38	-39.3398	50.2278	103.418	-42.4865	31.0274	88.8587	-54.622	12.7198	170.182	-20.016	-8.68316	153.23	-22.0088	-40.3635	132.212	-35.726	-51.6192	182.839	-42.5266	-20.6859	162.061	-47.498	-50.7314	131.652	-65.9367	-58.3882	171.946	-73.0776	-15.8395	139.627	-83.5963	-16.3836	131.186	-87.0169	17.6017	174.289	-95.1393	4.10113	145.169	-98.9874	14.4046	149.422	-78.4818	42.6635	208.942	-64.1936	36.4493	216.481	-66.8936	68.979	197.91	-33.4904	54.1015	
33	0.275	155.086	-30.2615	72.7594	123.282	-41.6837	55.3148	104.494	-46.7859	34.5177	87.9197	-56.8145	12.5433	167.42	-18.7891	-11.8667	154.708	-25.0364	-38.096	130.819	-42.0664	-49.8513	183.159	-47.5907	-19.6454	162.452	-51.3085	-49.476	131.195	-65.3912	-55.6524	169.198	-77.1336	-16.5952	138.976	-87.6859	-13.712	132.27	-90.1796	17.4075	171.294	-98.1809	4.32478	144.306	-98.9023	16.2513	148.66	-80.6129	47.6584	209.076	-63.7583	37.1075	215.154	-64.9825	68.6797	195.315	-32.0979	59.4898	
34	0.283333	155.358	-32.503	70.4044	122.113	-42.8204	51.731	108.375	-49.8908	33.9728	88.1401	-58.8039	12.5072	168.752	-25.6852	-10.5441	150.675	-27.0842	-40.117	128.777	-42.8529	-48.8288	180.006	-44.4107	-23.4383	161.976	-53.3737	-48.1921	127.274	-70.4868	-52.5649	169.292	-75.9115	-14.6798	140.169	-88.5435	-13.1426	130.818	-86.418	22.5445	170.874	-98.7712	5.44303	144.727	-99.8841	18.4602	148.974	-80.7834	44.8159	207.18	-67.8658	39.0319	214.269	-67.0698	72.5255	195.142	-34.1943	56.5312	
35	0.291667	156.412	-33.7881	74.0717	122.764	-44.1392	50.1832	104.971	-49.0766	32.8707	93.195	-61.2981	13.2802	166.83	-22.4183	-12.8184	153.979	-32.3801	-36.8297	127.554	-43.4699	-47.873	180.743	-47.7929	-24.7785	160.221	-56.7812	-49.0737	129.209	-74.7567	-52.1954	171.492	-80.0217	-13.6086	136.677	-88.0558	-10.5853	132.544	-90.3393	24.4712	169.186	-99.7989	4.3356	146.331	-99.8795	16.0748	150.853	-83.1573	45.2653	207.801	-64.1331	38.3011	215.913	-67.8065	74.446	197.772	-36.8758	57.2332	
36	0.3	155.826	-33.643	70.2611	125.154	-46.097	53.4424	105.208	-50.0757	28.1895	91.483	-61.5911	12.4793	168.967	-27.1459	-12.0849	152.681	-30.3062	-37.9746	128.803	-48.1387	-46.8481	179.24	-46.4693	-23.7073	160.996	-57.6679	-47.5069	125.699	-72.5752	-53.0095	171.441	-79.3371	-13.3477	137.733	-90.8242	-9.46982	132.743	-89.4136	23.2177	174.021	-102.656	6.78133	143.96	-101.518	21.3679	147.587	-83.5757	43.4442	206.24	-66.3919	38.6069	215.212	-65.9989	69.467	197.351	-37.0924	60.1301	
37	0.308333	156.605	-35.9726	74.2769	123.631	-45.572	54.3856	104.297	-50.2539	28.672	91.535	-62.5245	11.6255	168.18	-27.658	-9.84462	154.856	-33.7451	-37.4707	125.982	-44.7341	-47.9041	181.381	-49.5307	-23.2306	161.684	-60.8814	-48.1304	128.079	-76.775	-51.8678	173.25	-80.7147	-13.8428	138.251	-91.948	-9.8798	131.3	-89.6094	20.2326	172.565	-105.009	6.93973	145.035	-102.213	21.0045	150.974	-81.8979	45.3573	209.048	-67.6674	39.7053	217.807	-69.5902	69.4296	196.529	-37.1136	55.1676	
38	0.316667	156.462	-34.5983	75.2684	124.975	-45.6245	54.6231	106.026	-49.952	30.2331	91.7831	-61.7768	15.4876	167.875	-27.4156	-12.8779	152.416	-31.5272	-38.4599	125.508	-47.529	-46.7687	183.235	-52.3104	-21.2529	162.171	-57.4899	-47.2071	127.293	-73.3428	-52.7285	170.34	-80.5787	-14.7145	141.755	-93.9296	-12.9273	130.872	-89.9939	19.8997	174.926	-103.636	7.98819	147.21	-105.544	18.0764	148.901	-84.4095	43.1671	207.28	-68.2162	40.6858	215.776	-66.9022	70.8406	198.419	-37.1105	56.6888	
39	0.325	154.558	-31.6669	75.764	125.546	-44.8938	50.889	109.678	-50.7018	30.1853	93.2218	-61.0429	16.4819	168.644	-26.425	-6.48597	155.393	-29.9255	-36.5166	127.26	-45.0402	-47.1423	182.364	-49.3099	-22.5307	161.67	-60.505	-48.595	129.073	-76.5442	-51.7464	171.169	-84.3073	-14.51	139.887	-92.643	-11.3763	131.31	-89.783	21.9832	173.059	-101.729	7.38137	145.2	-103.633	19.8857	149.875	-84.1264	46.4025	208.932	-71.2907	39.9974	217.003	-71.3009	74.5546	198.389	-36.1516	57.3291	
40	0.333333	156.969	-30.7034	72.5173	127.199	-43.7157	53.9821	108.304	-47.6212	33.6223	94.1909	-58.0714	15.2475	171.268	-27.1179	-8.20767	157.783	-35.1742	-36.8958	127.192	-49.3513	-47.5309	185.579	-55.2969	-20.3475	165.663	-60.3802	-45.8849	130.697	-75.9596	-52.3083	174.355	-85.8885	-10.3782	140.349	-93.1691	-11.1459	130.677	-93.0664	20.4648	172.725	-107.574	9.63066	143.986	-105.306	21.4797	147.462	-86.5294	47.7253	207.68	-70.5557	40.2655	218.286	-70.9606	73.9318	199.316	-41.0798	58.2342	
41	0.341667	160.536	-31.047	72.6779	127.953	-39.632	56.3596	111.279	-44.6978	31.894	92.8194	-54.3243	13.5915	173.35	-27.7294	-9.56193	159.002	-35.8592	-38.0926	132.25	-46.0752	-48.0185	185.064	-55.6485	-23.0834	165.323	-66.0282	-46.9754	129.993	-78.9953	-50.7819	170.512	-87.339	-12.2123	139.612	-91.8294	-11.7539	130.811	-90.154	24.7012	172.173	-108.064	11.8189	142.256	-100.197	22.747	146.045	-86.0918	47.8855	209.611	-73.9265	42.5282	215.082	-73.9623	72.3169	200.069	-39.0712	59.096	
42	0.35	164.555	-30.637	70.325	131.948	-37.885	54.9862	111.642	-39.282	31.3715	93.1607	-48.5772	12.4907	176.773	-34.6406	-13.8116	163.041	-39.9841	-37.424	135.024	-48.8106	-48.2542	187.191	-62.2675	-22.9811	168.637	-68.5982	-45.9375	131.634	-76.8048	-51.5623	170.166	-85.3751	-10.0471	136.771	-91.5486	-9.58741	127.021	-85.3815	20.0533	168.177	-110.019	13.0796	139.112	-103.138	21.4897	145.2	-82.0578	48.9305	208.802	-77.2514	43.1685	215.541	-78.0524	72.7838	202.202	-42.1858	55.2095	
43	0.358333	167.342	-26.9432	69.4997	136.046	-34.9015	52.3808	116.345	-35.0949	32.3467	98.3787	-42.5192	15.6719	181.686	-38.3323	-10.6258	163.404	-39.4085	-42.038	137.791	-46.5672	-50.4478	187.916	-64.5751	-18.1364	167.253	-67.1588	-47.3972	133.383	-73.0739	-52.4851	170.634	-88.4705	-9.44682	133.735	-88.3903	-8.58319	126.013	-85.2638	21.5033	161.912	-110.673	13.0175	136.862	-97.0166	21.9279	144.049	-79.2298	47.8137	207.09	-81.0439	43.9695	215.178	-80.9325	73.5986	206.048	-49.1292	58.2627	
44	0.366667	173.137	-30.2061	65.1547	141.025	-30.2867	51.3502	121.024	-29.8314	31.155	100.932	-35.6603	13.6533	185.89	-40.1094	-16.7317	170.543	-41.8128	-40.8941	139.462	-49.8657	-51.43	188.037	-68.8271	-21.3354	166.61	-74.4459	-47.3471	131.593	-73.2065	-52.8935	164.297	-90.9623	-10.4808	130.823	-85.0991	-8.0697	124.623	-78.9517	22.0835	158.1	-105.65	14.6108	132.9	-93.2721	24.921	145.114	-73.7217	45.0846	205.772	-87.0062	40.3975	211.387	-86.0837	78.3007	208.397	-50.9433	58.012	
45	0.375	178.427	-29.7614	64.7761	144.907	-25.4426	46.8736	125.425	-21.6718	27.0068	103.93	-27.5737	9.22502	190.966	-46.9716	-12.6282	175.037	-44.6613	-41.6015	142.895	-45.9354	-53.1133	189.492	-72.7955	-20.3892	170.152	-74.374	-46.5512	132.17	-72.7678	-52.8566	165.63	-90.2871	-6.72222	130.135	-81.7195	-7.61556	123.291	-71.2613	22.3528	150.931	-107.737	15.1822	132.119	-89.6816	21.4751	141.008	-71.6037	49.5424	202.284	-88.8258	44.0017	210.527	-92.7383	79.8389	211.121	-53.3017	54.6102	
46	0.383333	183.304	-27.0517	63.7763	151.859	-23.3027	46.0828	130.684	-18.1771	22.896	113.019	-23.0248	10.5259	194.582	-47.6236	-14.3017	178.524	-51.5695	-42.0462	145.492	-47.9789	-53.6569	188.787	-78.6181	-18.8995	168.053	-77.466	-47.1152	133.155	-71.1372	-52.5828	163.642	-90.8686	-6.43807	129.652	-77.6384	-7.68296	124.485	-64.9882	22.5208	145.79	-107.091	15.8376	127.336	-84.1429	26.4954	143.372	-67.0297	45.078	197.325	-97.3099	42.2058	207.115	-96.3074	76.2633	212.392	-62.1502	55.4683	
47	0.391667	190.376	-31.9872	66.2846	158.17	-18.2395	44.5752	139.979	-13.6308	23.8919	121.077	-20.6302	6.39436	198.187	-52.1234	-13.1796	180.29	-57.0589	-42.7705	154.296	-46.1828	-54.2294	186.305	-85.7704	-19.0488	164.574	-80.7297	-47.4364	132.307	-66.6196	-53.9582	160.669	-92.8963	-4.8444	127.095	-76.0784	-5.85144	125.001	-60.5536	20.6709	143.82	-103.3	17.5965	129.419	-79.1402	22.0614	143.147	-62.0035	43.9235	196.228	-100.988	46.9989	205.197	-96.7425	81.5471	214.308	-65.8848	59.4598	
48	0.4	195.987	-31.8805	65.1404	166.409	-16.167	45.3325	147.41	-12.7956	20.847	128.69	-13.4966	7.93421	198.794	-61.622	-17.5605	187.078	-58.4151	-41.4383	157.415	-51.1378	-52.7486	183.858	-90.1621	-17.5669	165.796	-83.4542	-44.8045	134.075	-66.4799	-53.239	158.34	-91.6997	-5.37915	129.911	-74.2234	-8.36214	127.382	-56.0357	25.3038	141.267	-102.021	20.8086	123.481	-76.7263	24.7208	143.31	-59.4789	43.8461	191.543	-103.141	50.8266	200.561	-102.62	81.0804	215.055	-71.6511	58.989	
49	0.408333	199.827	-37.4115	63.8528	172.311	-18.5522	40.0366	155.526	-11.0889	22.7882	134.881	-12.6446	4.99806	199.241	-66.4237	-12.5803	182.951	-63.1385	-43.1217	156.563	-49.6737	-53.723	185.054	-89.9228	-13.4946	159.761	-87.5619	-43.6362	134.873	-68.2254	-51.4667	152.252	-94.0385	-2.97502	130.522	-69.8957	-7.7359	128.604	-51.6458	24.6927	140.598	-99.0447	21.6714	123.59	-73.3575	26.1199	142.715	-56.2439	44.5168	188.203	-105.769	49.8726	197.198	-101.893	82.1652	215.3	-77.7584	60.0045	
50	0.416667	203.842	-36.786	62.0065	178.198	-16.0221	42.376	162.115	-10.9714	22.5189	140.932	-9.38908	2.7262	202.177	-69.791	-14.244	187.268	-66.6278	-42.5322	162.084	-52.6282	-53.7342	181.149	-93.8441	-17.218	163.309	-87.4689	-41.3394	131.725	-69.904	-49.5814	150.094	-94.6308	-1.33696	128.85	-69.7546	-5.80723	128.746	-50.6649	25.6711	136.376	-96.3187	22.7514	127.327	-68.7233	23.8538	141.501	-55.949	48.9521	186.727	-105.532	48.0613	195.962	-105.275	82.2741	212.752	-81.5877	61.7551	
51	0.425	208.406	-38.918	66.1085	184.074	-20.6326	40.4161	167.967	-13.5137	22.2984	148.371	-9.09321	3.15871	200.791	-75.4978	-9.73727	186.977	-72.5716	-37.9784	165.174	-52.9133	-53.8596	179.41	-96.4216	-10.8211	161.485	-89.9613	-39.3577	134.413	-64.6599	-51.7737	148.046	-95.4101	1.55054	129.799	-63.6902	-4.67778	130.449	-47.6481	25.4959	133.442	-93.8353	23.082	123.047	-68.5671	26.3309	146.648	-53.0412	49.6588	183.201	-108.155	50.1139	189.996	-109.344	86.3134	214.2	-85.2569	61.4089	
52	0.433333	211.434	-43.4541	64.8719	189.375	-19.7432	42.0373	172.837	-14.7412	20.5082	155.916	-5.42862	4.18804	198.62	-79.1329	-12.6628	187.618	-72.8801	-41.1307	160.913	-53.8095	-52.5735	175.077	-99.8565	-12.4633	160.421	-89.4173	-38.999	132.477	-65.8349	-48.6508	147.495	-91.354	-0.612728	129.906	-63.7801	-4.06731	132.869	-44.6644	25.3364	133.05	-92.6619	24.4414	126.291	-63.9495	25.2373	146.72	-51.1167	47.0871	178.587	-110.86	53.4607	189.933	-106.813	89.3468	209.742	-89.049	62.5507	
